<?xml version="1.0" encoding="utf-8"?>
<!-- Generator: Adobe Illustrator 16.2.1, SVG Export Plug-In . SVG Version: 6.00 Build 0)  -->
<!DOCTYPE svg PUBLIC "-//W3C//DTD SVG 1.1//EN" "http://www.w3.org/Graphics/SVG/1.1/DTD/svg11.dtd">
<svg version="1.1" id="Layer_1" xmlns="http://www.w3.org/2000/svg" xmlns:xlink="http://www.w3.org/1999/xlink" x="0px" y="0px"
	 width="111px" height="20px" viewBox="0 0 111 20" enable-background="new 0 0 111 20" xml:space="preserve">
<g>
	<g>
		<path fill="#FFFFFF" d="M15.008,1.203h6.531c1.607,0,2.874,0.441,3.677,1.244c0.644,0.645,0.966,1.427,0.966,2.393v0.04
			c0,1.587-0.844,2.472-1.85,3.033c1.628,0.625,2.634,1.569,2.634,3.458v0.041c0,2.572-2.091,3.857-5.265,3.857h-6.692V1.203z
			 M20.875,6.887c1.366,0,2.231-0.44,2.231-1.486V5.362c0-0.926-0.724-1.447-2.03-1.447h-3.055v2.973H20.875z M21.7,12.555
			c1.366,0,2.189-0.48,2.189-1.525v-0.042c0-0.943-0.703-1.526-2.291-1.526h-3.576v3.093H21.7z"/>
		<path fill="#FFFFFF" d="M27.165,9.944V9.903c0-3.095,2.491-5.607,5.849-5.607c3.336,0,5.808,2.474,5.808,5.567v0.04
			c0,3.095-2.49,5.607-5.848,5.607C29.638,15.51,27.165,13.039,27.165,9.944z M35.807,9.944V9.903c0-1.588-1.146-2.975-2.833-2.975
			c-1.749,0-2.794,1.347-2.794,2.935v0.04c0,1.589,1.146,2.976,2.834,2.976C34.762,12.879,35.807,11.531,35.807,9.944z"/>
		<path fill="#FFFFFF" d="M39.404,9.944V9.903c0-3.095,2.494-5.607,5.848-5.607c3.337,0,5.808,2.474,5.808,5.567v0.04
			c0,3.095-2.491,5.607-5.848,5.607C41.876,15.51,39.404,13.039,39.404,9.944z M48.045,9.944V9.903c0-1.588-1.145-2.975-2.833-2.975
			c-1.748,0-2.793,1.347-2.793,2.935v0.04c0,1.589,1.146,2.976,2.833,2.976C47,12.879,48.045,11.531,48.045,9.944z"/>
		<path fill="#FFFFFF" d="M51.964,0.598h3.055v7.817l3.578-3.918h3.658l-4.1,4.24l4.24,6.532h-3.498l-2.812-4.403l-1.067,1.127
			v3.275h-3.055V0.598z"/>
		<path fill="#FFFFFF" d="M63.079,1.203h6.529c1.609,0,2.877,0.441,3.682,1.244c0.643,0.645,0.963,1.427,0.963,2.393v0.04
			c0,1.587-0.844,2.472-1.85,3.033c1.629,0.625,2.633,1.569,2.633,3.458v0.041c0,2.572-2.09,3.857-5.264,3.857h-6.693V1.203z
			 M68.946,6.887c1.369,0,2.23-0.44,2.23-1.486V5.362c0-0.926-0.721-1.447-2.029-1.447h-3.053v2.973H68.946z M69.772,12.555
			c1.365,0,2.189-0.48,2.189-1.525v-0.042c0-0.943-0.703-1.526-2.291-1.526h-3.576v3.093H69.772z"/>
		<path fill="#FFFFFF" d="M75.519,12.172v-0.037c0-2.352,1.787-3.437,4.342-3.437c1.084,0,1.867,0.181,2.633,0.442V8.959
			c0-1.267-0.785-1.969-2.311-1.969c-1.166,0-1.99,0.22-2.975,0.581l-0.766-2.33c1.186-0.523,2.352-0.865,4.182-0.865
			c1.666,0,2.873,0.442,3.635,1.207c0.805,0.803,1.168,1.988,1.168,3.436v6.25h-2.953v-1.166c-0.746,0.824-1.77,1.367-3.256,1.367
			C77.187,15.471,75.519,14.305,75.519,12.172z M82.532,11.471v-0.542c-0.523-0.244-1.205-0.402-1.949-0.402
			c-1.307,0-2.109,0.522-2.109,1.485v0.041c0,0.826,0.684,1.307,1.67,1.307C81.567,13.359,82.532,12.576,82.532,11.471z"/>
		<path fill="#FFFFFF" d="M89.606,13.863v1.406H86.55V0.598h3.057v5.446c0.744-1.005,1.77-1.749,3.355-1.749
			c2.514,0,4.904,1.971,4.904,5.567v0.04c0,3.597-2.35,5.568-4.904,5.568C91.337,15.471,90.331,14.727,89.606,13.863z M94.813,9.903
			v-0.04c0-1.789-1.209-2.976-2.637-2.976c-1.424,0-2.609,1.187-2.609,2.976v0.04c0,1.791,1.186,2.976,2.609,2.976
			C93.604,12.879,94.813,11.711,94.813,9.903z"/>
		<path fill="#FFFFFF" d="M97.97,17.801l1.025-2.211c0.398,0.242,0.904,0.422,1.305,0.422c0.521,0,0.805-0.158,1.064-0.703
			L97.146,4.498h3.234l2.451,7.334l2.352-7.334h3.176l-4.141,11.032c-0.822,2.193-1.705,3.016-3.537,3.016
			C99.577,18.545,98.753,18.264,97.97,17.801z"/>
	</g>
	<path fill="#FFFFFF" d="M108.612,4.407h0.84v0.168h-0.322v0.839h-0.199V4.575h-0.318V4.407L108.612,4.407z M110.669,4.407h-0.291
		l-0.178,0.5c-0.018,0.07-0.045,0.16-0.066,0.249h-0.004c-0.025-0.104-0.043-0.179-0.07-0.257l-0.168-0.492h-0.305l-0.076,1.007
		h0.193l0.037-0.591c0.004-0.09,0.008-0.188,0.008-0.282h0.01c0.023,0.089,0.057,0.21,0.076,0.284l0.176,0.575h0.209l0.182-0.56
		c0.031-0.092,0.059-0.211,0.086-0.3h0.01c0.004,0.111,0.004,0.204,0.008,0.282l0.037,0.591h0.199L110.669,4.407L110.669,4.407z"/>
	<g>
		<polygon fill="#F69A28" points="5.477,14.953 7.915,15.236 9.629,2.986 7.191,2.703 5.477,14.953 		"/>
		<polygon fill="#BCCA52" points="10.313,15.236 12.773,15.236 12.773,1.172 10.313,1.172 10.313,15.236 		"/>
		<polygon fill="#77BED7" points="0.259,14.555 2.606,15.236 6,5.655 3.649,4.973 0.259,14.555 		"/>
	</g>
</g>
</svg>
